<?xml version="1.0" standalone="no"?>
<!DOCTYPE svg PUBLIC "-//W3C//DTD SVG 1.1//EN" "http://www.w3.org/Graphics/SVG/1.1/DTD/svg11.dtd" >
<svg xmlns="http://www.w3.org/2000/svg">
<metadata></metadata>
<defs>
<font id="square721_dmitalic" horiz-adv-x="1183" >
<font-face units-per-em="2048" ascent="1638" descent="-410" />
<missing-glyph horiz-adv-x="567" />
<glyph horiz-adv-x="0" />
<glyph unicode="&#xd;" horiz-adv-x="567" />
<glyph unicode=" "  horiz-adv-x="567" />
<glyph unicode="&#x09;" horiz-adv-x="567" />
<glyph unicode="&#xa0;" horiz-adv-x="567" />
<glyph unicode="!" horiz-adv-x="704" d="M211 0l41 326h287l-41 -326h-287zM285 608l108 881h287l-109 -881h-286z" />
<glyph unicode="&#x22;" horiz-adv-x="960" d="M264 1229l33 266h283l-33 -266l-119 -266h-111zM748 1229l32 266h283l-33 -266l-119 -266h-110z" />
<glyph unicode="#" horiz-adv-x="1126" d="M25 295v229h229l49 254h-197v234h242l78 413h217l-78 -413h205l82 413h213l-78 -413h164v-234h-201l-49 -254h193v-229h-242l-70 -356h-217l70 356h-209l-66 -356h-217l66 356h-184zM471 524h209l53 254h-213z" />
<glyph unicode="$" horiz-adv-x="1398" d="M141 276v33t4 39l11 84h342q-2 -14 -2 -39q0 -61 37.5 -93t121.5 -32l43 353l-178 20q-150 16 -219.5 88t-69.5 211q0 39 7 82l12 94q25 207 160 311q61 49 145 64.5t211 15.5h41l22 176h164l-22 -176h35q197 0 299 -73.5t102 -212.5v-25q-4 -19 -4 -27l-10 -86h-342 q2 14 2 39q0 98 -117 99l-39 -326l160 -16q322 -41 321 -297q0 -14 -2 -30.5t-2 -25.5l-18 -147q-23 -180 -146 -288.5t-307 -108.5h-119l-26 -207h-164l27 207h-43q-225 0 -331 69.5t-106 224.5zM598 1014q0 -47 33 -67.5t104 -31.5l37 308q-150 0 -164 -123l-8 -64 q-2 -16 -2 -22zM819 268q86 0 126 32t48 103l8 66q2 8 2.5 16.5t0.5 12.5q0 51 -33 72.5t-111 29.5z" />
<glyph unicode="%" horiz-adv-x="1703" d="M240 985q0 35 6 82l18 147q18 156 84 219.5t213 63.5h92q127 0 180.5 -45t53.5 -156q0 -35 -6 -82l-19 -147q-18 -156 -83.5 -219.5t-213.5 -63.5h-92q-127 0 -180 45t-53 156zM340 0l1040 1495h181l-1057 -1495h-164zM440 1006q0 -43 18.5 -60.5t65.5 -17.5h27 q61 0 81.5 30.5t33.5 124.5l14 115q6 49 6 78q0 43 -18.5 60.5t-65.5 17.5h-27q-61 0 -81.5 -31t-32.5 -125l-15 -115q-6 -49 -6 -77zM1024 195q0 37 6 84l19 147q18 158 82.5 220.5t211.5 62.5h93q127 0 181 -46.5t54 -156.5q0 -37 -6 -80l-18 -147q-20 -158 -85 -220.5 t-212 -62.5h-93q-127 0 -180 45t-53 154zM1225 215q0 -43 16 -59.5t66 -16.5h26q63 0 84 31t33 125l14 115q6 49 6 77q0 43 -18 60.5t-66 17.5h-26q-61 0 -82 -30.5t-33 -124.5l-14 -115q-6 -49 -6 -80z" />
<glyph unicode="&#x26;" horiz-adv-x="1505" d="M131 274v33q4 25 4 35l23 195q16 139 88.5 214.5t222.5 100.5q-63 61 -90 115.5t-27 115.5q0 29 2 45l8 80q20 164 135 232.5t345 68.5h114q209 0 309.5 -56t100.5 -191q0 -12 -2 -28.5t-2 -25.5l-16 -143h-287l10 88q12 100 -113 100h-153q-127 0 -139 -100l-7 -49 q-2 -20 4.5 -45t20.5 -39l438 -457l23 195h282l-28 -234q-8 -78 -23.5 -114.5t-40.5 -69.5l174 -180l-186 -195l-145 150q-76 -82 -177 -115q-84 -27 -227 -27h-190q-451 0 -451 301zM457 360q0 -123 161 -122h234q47 0 77.5 15t61.5 56l-399 414q-59 -10 -82 -49t-35 -133 l-16 -140q-2 -14 -2 -25v-16z" />
<glyph unicode="'" horiz-adv-x="485" d="M264 1229l33 266h283l-33 -266l-119 -266h-111z" />
<glyph unicode="(" horiz-adv-x="677" d="M150 375q0 29 1 54.5t9 111.5q25 201 102 389q66 158 168 313q51 76 184 252h205q-152 -215 -252 -442q-113 -256 -143 -496q-12 -98 -12 -201q0 -209 47 -414.5t125 -355.5h-205q-86 182 -115 254q-53 129 -83.5 261t-30.5 274z" />
<glyph unicode=")" horiz-adv-x="677" d="M6 -414q145 186 256 452.5t141 518.5q12 96 13 186q0 195 -49 396q-41 168 -125 356h204q78 -152 103 -211q59 -135 88 -256q37 -152 37 -313q0 -41 -2 -85t-8 -89q-23 -184 -89 -353q-53 -137 -157 -303q-66 -104 -207 -299h-205z" />
<glyph unicode="*" horiz-adv-x="790" d="M193 1176l71 147l201 -78l31 250h159l-30 -250l213 78l34 -147l-229 -78l135 -197l-145 -110l-127 196l-164 -196l-117 110l181 197z" />
<glyph unicode="+" d="M119 352v246h373v373h245v-373h373v-246h-373v-372h-245v372h-373z" />
<glyph unicode="," horiz-adv-x="704" d="M180 -145q129 0 142 112l2 53h-109l41 338h287l-51 -417q-10 -90 -90 -145.5t-212 -55.5h-10l15 115h-15z" />
<glyph unicode="-" horiz-adv-x="677" d="M70 426v279h557v-279h-557z" />
<glyph unicode="." horiz-adv-x="704" d="M211 0l43 356h287l-43 -356h-287z" />
<glyph unicode="/" horiz-adv-x="567" d="M16 0l430 1495h132l-431 -1495h-131z" />
<glyph unicode="0" horiz-adv-x="1398" d="M178 393q0 35 3 81t12 112l38 317q41 332 167 468t409 136h178q238 0 339 -95t101 -318q0 -87 -12 -191l-39 -317q-41 -332 -167 -468t-408 -136h-178q-240 0 -341.5 95t-101.5 316zM524 444q0 -96 40 -129.5t151 -33.5h63q141 0 189 65q41 57 65 252l35 293 q12 96 12 158q0 90 -40 124.5t-148 34.5h-64q-141 0 -186 -60.5t-70 -256.5l-34 -293q-12 -92 -13 -154z" />
<glyph unicode="1" horiz-adv-x="1398" d="M326 1055l542 434h410l-182 -1489h-334l143 1165l-409 -338z" />
<glyph unicode="2" horiz-adv-x="1398" d="M150 0l43 344q37 311 272 379l450 135q76 23 109 53.5t41 98.5l6 59q4 33 4 47q0 68 -41 96.5t-135 28.5h-65q-106 0 -152.5 -38t-58.5 -134l-9 -63h-327l14 114q23 186 150 286.5t342 100.5h217q195 0 303 -86t108 -237q0 -12 -2 -29t-2 -25l-16 -124 q-41 -324 -305 -394l-437 -114q-61 -16 -84.5 -42t-29.5 -77l-10 -82h770l-37 -297h-1118z" />
<glyph unicode="3" horiz-adv-x="1398" d="M172 303q0 12 2 28.5t2 24.5l14 117h336l-6 -51q-2 -14 -2 -39q0 -131 178 -131h70q195 0 215 160l6 55q2 12 2 35q0 129 -176 129h-102l32 264h99q180 0 198 156l4 41q2 10 3 30q0 121 -160 121h-64q-96 0 -143 -39t-59 -133l-5 -31h-331l10 82q23 186 155 285.5 t359 99.5h162q428 0 428 -309q0 -14 -2 -30.5t-2 -24.5l-13 -99q-25 -203 -237 -249l-8 -43q201 -57 200 -238v-27q-4 -18 -4 -26l-14 -113q-20 -174 -153.5 -270t-352.5 -96h-225q-197 0 -306.5 85t-109.5 236z" />
<glyph unicode="4" horiz-adv-x="1398" d="M125 293l45 375l674 821h506l-113 -930h176l-33 -266h-176l-37 -293h-331l36 293h-747zM428 559h477l84 698z" />
<glyph unicode="5" horiz-adv-x="1398" d="M195 295q0 12 2 28.5t2 24.5l8 62h330l-2 -7q-2 -14 -3 -38q0 -68 39 -89.5t144 -21.5h55q125 0 166 32.5t55 145.5l19 152q4 27 4 67q0 70 -37 90.5t-143 20.5h-56q-170 0 -198 -80h-316l98 807h1027l-31 -260h-711l-43 -352q70 80 136.5 113.5t150.5 33.5h86 q199 0 290 -77t91 -242q0 -45 -6 -95l-29 -219q-27 -229 -150.5 -319t-400.5 -90h-139q-213 0 -325.5 81.5t-112.5 231.5z" />
<glyph unicode="6" horiz-adv-x="1398" d="M217 387q0 37 3 85t11 114l39 317q41 332 161 468t388 136h176q406 0 406 -272v-25q-4 -18 -4 -26l-8 -72h-332q2 14 2 39q0 51 -32 71.5t-107 20.5h-99q-111 0 -145.5 -27.5t-46.5 -125.5l-39 -322q72 70 138.5 99.5t141.5 29.5h146q174 0 256 -73.5t82 -229.5 q0 -43 -6 -90l-17 -142q-49 -381 -522 -380h-176q-225 0 -320.5 93t-95.5 312zM541 344q0 -57 37.5 -76.5t138.5 -19.5h80q119 0 156.5 25.5t47.5 111.5l15 115q4 33 4 45q0 57 -35 74.5t-141 17.5h-80q-115 0 -156 -25.5t-51 -111.5l-14 -115q-2 -14 -2 -25.5v-15.5z" />
<glyph unicode="7" horiz-adv-x="1398" d="M307 1225l33 264h1087l-32 -277l-652 -1212h-350l647 1225h-733z" />
<glyph unicode="8" horiz-adv-x="1398" d="M203 297v25q4 18 4 26l14 113q27 233 264 291l7 43q-180 39 -181 192q0 25 2 39l11 96q25 197 150.5 291t363.5 94h135q424 0 424 -315v-25q0 -16 -4 -45l-11 -96q-25 -182 -237 -231l-8 -43q102 -29 152 -87.5t50 -152.5v-25q-4 -18 -4 -26l-14 -113q-23 -174 -155 -270 t-351 -96h-192q-201 0 -310.5 82.5t-109.5 232.5zM549 383q0 -131 182 -131h43q195 0 217 162l6 57q2 10 2 33q0 133 -184 133h-41q-195 0 -217 -166l-6 -57q-2 -10 -2 -31zM647 1022q0 -131 162 -131h39q184 0 203 158l4 41q2 10 2 26q0 129 -166 129h-35q-184 0 -203 -155 l-4 -41q-2 -10 -2 -27z" />
<glyph unicode="9" horiz-adv-x="1398" d="M217 252v24q4 18 4 27l10 74h332q-4 -29 -4 -39q0 -53 29.5 -71.5t111.5 -18.5h99q111 0 144.5 27.5t45.5 125.5l39 320q-72 -70 -138.5 -99.5t-141.5 -29.5h-146q-174 0 -256 73.5t-82 229.5q0 43 6 90l17 139q49 383 522 383h176q225 0 320.5 -93t95.5 -310 q0 -37 -3.5 -86t-11.5 -115l-38 -317q-41 -332 -161 -468t-388 -136h-176q-406 0 -406 270zM598 944q0 -57 35 -74.5t141 -17.5h82q115 0 155 25.5t50 111.5l14 115q2 12 2 24.5v18.5q0 59 -35.5 77.5t-136.5 18.5h-82q-119 0 -157.5 -26.5t-49.5 -112.5l-14 -115 q-4 -33 -4 -45z" />
<glyph unicode=":" horiz-adv-x="704" d="M211 0l41 330h287l-41 -330h-287zM299 711l39 327h287l-39 -327h-287z" />
<glyph unicode=";" horiz-adv-x="704" d="M178 -150q125 0 141 109v49h-108l41 326h287l-50 -402q-10 -86 -91 -140t-210 -54h-10l15 112h-15zM299 713l39 325h287l-39 -325h-287z" />
<glyph unicode="&#x3c;" d="M86 492v245l983 430v-245l-676 -308l676 -368v-246z" />
<glyph unicode="=" d="M119 106v246h991v-246h-991zM119 598v246h991v-246h-991z" />
<glyph unicode="&#x3e;" d="M90 0v246l676 368l-676 308v245l983 -430v-245z" />
<glyph unicode="?" horiz-adv-x="1159" d="M231 1124l11 70q16 147 121.5 230t281.5 83h236q158 0 242.5 -68.5t84.5 -187.5q0 -29 -2 -43l-18 -149q-10 -88 -68 -168q-39 -55 -114 -103q-14 -8 -160 -83q-88 -47 -101 -130l-2 -26h-309l12 100q10 86 46 137.5t104 87.5l186 97q88 51 95 100l12 96q12 109 -107 109 h-88q-137 0 -149 -115l-6 -37h-308zM367 0l41 326h309l-41 -326h-309z" />
<glyph unicode="@" horiz-adv-x="1974" d="M90 516q0 408 287 717q297 319 717 319q147 0 319 -69q219 -88 350 -252q166 -207 166 -502q0 -211 -110 -385q-143 -225 -398 -225q-170 0 -241 139q-102 -84 -168 -115.5t-135 -31.5q-111 0 -209 79q-127 102 -127 281q0 207 147 389q162 201 385 201q80 0 144.5 -41 t80.5 -98l33 122h185l-173 -618q0 -76 17.5 -111.5t73.5 -35.5q129 0 225 170q90 160 90 346q0 227 -204 406t-472 179q-354 0 -586 -288q-201 -252 -200 -547q0 -311 260 -498q213 -154 452 -153q147 0 210 12t216 69l62 -163q-117 -49 -195 -66q-119 -25 -317 -25 q-352 0 -610 218q-274 231 -275 577zM737 520q0 -100 43 -170.5t109 -70.5q172 0 266 163q74 129 74 287q0 61 -41 117q-49 68 -127 67q-141 0 -240 -147q-84 -125 -84 -246z" />
<glyph unicode="A" horiz-adv-x="1515" d="M63 0l599 1489h581l223 -1489h-383l-34 268h-502l-101 -268h-383zM643 537h379l-74 677h-59z" />
<glyph unicode="B" horiz-adv-x="1464" d="M168 0l182 1489h680q236 0 339.5 -58.5t103.5 -207.5v-25q-1 -14 -5 -43l-12 -100q-27 -236 -262 -262l-2 -19q111 -23 167 -94.5t56 -177.5q0 -27 -2 -41l-12 -90q-27 -217 -158 -297q-121 -74 -405 -74h-670zM561 299h318q147 0 163 133l9 64q2 10 2 28q0 104 -133 105 h-318zM633 879h303q139 0 154 127l8 61q2 8 2 16.5v12.5q0 51 -30 73.5t-97 22.5h-303z" />
<glyph unicode="C" horiz-adv-x="1425" d="M180 408q0 80 13 178l38 317q41 334 178.5 469t444.5 135h111q264 0 375.5 -87t111.5 -298q0 -39 -2 -62.5t-8 -80.5l-2 -8h-357l2 6q4 37 5 53q0 86 -49.5 123t-161.5 37q-152 0 -205 -68q-45 -59 -70 -252l-31 -254q-12 -90 -12 -149q0 -96 44 -132t165 -36 q133 0 190.5 54.5t73.5 193.5h365q-37 -297 -175.5 -431t-420.5 -134h-135q-264 0 -376 97t-112 329z" />
<glyph unicode="D" horiz-adv-x="1560" d="M168 0l182 1489h737q262 0 376 -95.5t114 -320.5q0 -78 -12 -174l-39 -309q-41 -328 -176.5 -459t-444.5 -131h-737zM563 299h318q158 0 208 60.5t74 258.5l31 252q12 90 12 150q0 98 -46 134t-171 36h-317z" />
<glyph unicode="E" horiz-adv-x="1386" d="M168 0l182 1489h1077l-36 -299h-719l-37 -307h698l-30 -252h-699l-41 -332h735l-36 -299h-1094z" />
<glyph unicode="F" horiz-adv-x="1236" d="M168 0l182 1489h961l-37 -299h-602l-41 -338h567l-37 -295h-567l-68 -557h-358z" />
<glyph unicode="G" horiz-adv-x="1519" d="M184 461q0 59 11 147l28 232q43 344 192.5 505.5t438.5 161.5h217q219 0 349 -103.5t130 -262.5q0 -29 -2 -43l-6 -45h-360q0 74 -50.5 105.5t-162.5 31.5h-101q-160 0 -210 -61.5t-74 -258.5l-31 -254q-6 -49 -9 -84.5t-3 -62.5q0 -98 46 -134t173 -36h110 q127 0 184.5 38t67.5 134l11 80h-228l31 246h575l-30 -240q-35 -299 -178.5 -437t-421.5 -138h-271q-426 0 -426 479z" />
<glyph unicode="H" horiz-adv-x="1599" d="M168 0l182 1489h359l-70 -571h561l70 571h358l-182 -1489h-359l74 598h-561l-74 -598h-358z" />
<glyph unicode="I" horiz-adv-x="714" d="M180 0l182 1489h363l-182 -1489h-363z" />
<glyph unicode="J" horiz-adv-x="1255" d="M127 307q0 25 3 58.5t5 54.5l25 194h348l-19 -153q-2 -16 -3 -34.5t-1 -25.5q0 -102 101 -102h71q66 0 96.5 37t41.5 125l125 1028h362l-127 -1040q-57 -467 -459 -467h-184q-201 0 -293 75.5t-92 249.5z" />
<glyph unicode="K" horiz-adv-x="1443" d="M168 0l182 1489h359l-70 -574h41l428 574h426l-565 -719l432 -770h-445l-315 610h-39l-76 -610h-358z" />
<glyph unicode="L" horiz-adv-x="1234" d="M172 0l182 1489h363l-144 -1176h666l-39 -313h-1028z" />
<glyph unicode="M" horiz-adv-x="2054" d="M168 0l182 1489h547l188 -1092l455 1092h547l-182 -1489h-349l136 1104l-471 -1104h-367l-201 1116l-137 -1116h-348z" />
<glyph unicode="N" horiz-adv-x="1718" d="M168 0l182 1489h561l340 -1116h19l137 1116h340l-182 -1489h-559l-347 1124l-12 2l-139 -1126h-340z" />
<glyph unicode="O" horiz-adv-x="1523" d="M180 408q0 80 13 178l38 317q41 334 178.5 469t444.5 135h197q262 0 375.5 -97t113.5 -327q0 -82 -12 -180l-39 -317q-41 -334 -178 -469t-447 -135h-196q-264 0 -376 97t-112 329zM551 467q0 -96 46 -132t171 -36h74q160 0 210 60.5t74 256.5l31 254q6 66 9 93.5t3 54.5 q0 100 -46 136t-173 36h-73q-158 0 -208.5 -60.5t-74.5 -259.5l-31 -254q-12 -90 -12 -149z" />
<glyph unicode="P" horiz-adv-x="1452" d="M168 0l182 1489h678q250 0 363.5 -84t113.5 -287v-69q-6 -34 -8 -48l-12 -102q-33 -266 -170 -377.5t-418 -111.5h-319l-52 -410h-358zM612 709h299q111 0 152 38.5t57 161.5l10 90q4 33 5 48q0 76 -42 108.5t-139 32.5h-282z" />
<glyph unicode="Q" horiz-adv-x="1538" d="M180 401q0 82 13 181l38 319q41 334 178.5 471t444.5 137h197q264 0 376.5 -97t112.5 -329q0 -80 -12 -182l-39 -319q-16 -139 -45 -224.5t-90 -146.5l100 -105l-143 -157l-113 106q-68 -45 -152.5 -62.5t-199.5 -17.5h-178q-264 0 -376 97.5t-112 328.5zM551 465 q0 -98 46 -134t171 -36h186l-131 129l150 154l133 -134l51 424q4 37 8 81t4 67q0 102 -46 138t-173 36h-73q-158 0 -208.5 -62.5t-74.5 -259.5l-31 -254q-12 -90 -12 -149z" />
<glyph unicode="R" horiz-adv-x="1449" d="M168 0l182 1489h580q289 0 403 -59q133 -70 133 -250q0 -41 -6 -88l-14 -125q-37 -293 -311 -328l-5 -18q121 -20 179.5 -88t58.5 -181q0 -14 -2 -30.5t-2 -26.5l-37 -295h-366l30 256q0 16 2 34.5t2 24.5q0 76 -37.5 103.5t-134.5 27.5h-241l-56 -446h-358zM618 750h244 q111 0 156 38.5t59 151.5l8 59q0 10 2.5 26.5t2.5 33.5q0 74 -39 102.5t-136 28.5h-243z" />
<glyph unicode="S" horiz-adv-x="1398" d="M141 276v33t4 39l11 84h342q-2 -10 -2 -21.5v-15.5q0 -70 44 -98.5t152 -28.5h101q102 0 146 30t54 105l8 66q2 10 3 27q0 55 -37 76.5t-127 31.5l-320 37q-150 16 -219.5 88t-69.5 211q0 39 7 82l12 94q25 207 160 311q61 49 145 64.5t211 15.5h240q197 0 299 -73.5 t102 -212.5v-25q-4 -19 -4 -27l-10 -86h-342q2 12 2 37q0 57 -35 80t-117 23h-92q-102 0 -146.5 -26t-54.5 -97l-8 -64q-2 -8 -2 -24q0 -53 36 -71.5t132 -29.5l291 -32q321 -41 321 -295q0 -16 -2 -32.5t-2 -25.5l-18 -147q-23 -180 -146 -288.5t-307 -108.5h-325 q-225 0 -331 69.5t-106 224.5z" />
<glyph unicode="T" horiz-adv-x="1271" d="M223 1190l37 299h1126l-36 -299h-381l-146 -1190h-362l145 1190h-383z" />
<glyph unicode="U" horiz-adv-x="1564" d="M201 379q0 86 16 207l111 903h356l-106 -873q-10 -86 -11 -133q0 -106 47.5 -145t176.5 -39h73q158 0 211 61.5t78 255.5l107 873h356l-111 -903q-23 -182 -45 -256q-35 -117 -114.5 -200t-188 -115.5t-270.5 -32.5h-197q-168 0 -256 28q-104 35 -166 121 q-37 51 -52 110.5t-15 137.5z" />
<glyph unicode="V" horiz-adv-x="1492" d="M246 1489h379l153 -1180l21 2l450 1178h377l-594 -1489h-571z" />
<glyph unicode="W" horiz-adv-x="2099" d="M268 1489h361l-2 -1153l409 1153h412l111 -1153l294 1153h359l-424 -1489h-533l-75 1018l-332 -1018h-539z" />
<glyph unicode="X" horiz-adv-x="1484" d="M78 0l477 774l-242 715h402l157 -561l295 561h404l-426 -715l276 -774h-411l-181 616l-346 -616h-405z" />
<glyph unicode="Y" horiz-adv-x="1390" d="M209 1489h403l203 -617l346 617h400l-615 -967l-63 -522h-359l62 522z" />
<glyph unicode="Z" horiz-adv-x="1411" d="M111 0l41 330l839 846h-692l39 313h1132l-40 -336l-822 -840h719l-39 -313h-1177z" />
<glyph unicode="[" horiz-adv-x="677" d="M96 -414l236 1909h495l-26 -205h-226l-182 -1491h225l-26 -213h-496z" />
<glyph unicode="\" horiz-adv-x="567" d="M-8 1495h155l463 -1495h-155z" />
<glyph unicode="]" horiz-adv-x="677" d="M-2 -414l27 213h229l182 1491h-229l26 205h496l-235 -1909h-496z" />
<glyph unicode="^" d="M123 557l340 868h254l348 -868h-229l-242 610l-242 -610h-229z" />
<glyph unicode="_" horiz-adv-x="1013" d="M0 -250h1024v-246h-1024v246z" />
<glyph unicode="`" horiz-adv-x="1007" d="M451 1550h200l129 -370h-96z" />
<glyph unicode="a" horiz-adv-x="1179" d="M139 213q0 12 2 28.5t2 26.5l13 103q16 129 102 200.5t231 71.5h93q74 0 126 -30.5t101 -108.5l35 274q2 10 2 29q0 88 -101 88h-57q-66 0 -94.5 -15.5t-40.5 -64.5h-293q25 135 112 193.5t255 58.5h159q188 0 269.5 -60.5t81.5 -201.5v-27v-24q-4 -17 -4 -25l-91 -729 h-294l18 143q-74 -86 -139.5 -121.5t-137.5 -35.5h-120q-111 0 -170.5 59t-59.5 168zM444 274q0 -92 111 -92h92q119 0 135 117l6 57q2 8 3 25q0 92 -109 92h-92q-121 0 -137 -117l-7 -57q-2 -8 -2 -25z" />
<glyph unicode="b" d="M164 0l182 1489h293l-68 -561l19 2q37 63 112.5 94t178.5 31q147 0 216.5 -76t69.5 -231q0 -27 -3 -61t-5 -54l-26 -223q-29 -217 -119 -320.5t-262 -103.5q-106 0 -178 34.5t-101 114.5l-12 -2l-15 -133h-282zM504 338q0 -68 26.5 -96.5t96.5 -28.5h39q88 0 125 53 q31 45 45 170l20 166q6 55 6 98q0 68 -26.5 96.5t-96.5 28.5h-39q-88 0 -121.5 -49t-48.5 -174l-20 -166q-6 -55 -6 -98z" />
<glyph unicode="c" horiz-adv-x="1140" d="M154 289v71q6 37 8 54l26 225q29 238 128.5 333t322.5 95h141q180 0 275 -102q80 -88 80 -226q-1 -18 -5 -51h-294q2 10 2 33q0 59 -27 90q-33 37 -102 37h-45q-96 0 -127 -46t-50 -188l-22 -174q-4 -33 -7 -59.5t-3 -58.5q0 -66 27.5 -91.5t101.5 -25.5h45 q84 0 120.5 45t49.5 141h295q-29 -238 -125.5 -321.5t-321.5 -83.5h-141q-190 0 -271 68.5t-81 234.5z" />
<glyph unicode="d" d="M154 337q0 19 8 73l26 223q27 215 118 318.5t263 103.5q100 0 174 -31t97 -94l10 -2l68 561h294l-182 -1489h-285l21 133l-18 -2q-49 -80 -126 -112.5t-184 -32.5q-284 0 -284 301v50zM459 338q0 -68 26.5 -96.5t96.5 -28.5h39q88 0 120.5 49t46.5 174l21 166 q2 27 5 50.5t3 49.5q0 66 -26.5 94.5t-96.5 28.5h-39q-88 0 -121.5 -49t-48.5 -174l-20 -166q-6 -55 -6 -98z" />
<glyph unicode="e" horiz-adv-x="1144" d="M154 289v71q6 37 8 54l26 225q29 238 128.5 333t322.5 95h141q190 0 271.5 -68.5t81.5 -234.5v-57q-7 -45 -9 -68l-18 -152h-641l-19 -153q-2 -16 -2 -45q0 -61 32 -86t106 -25h43q76 0 109.5 23.5t53.5 91.5h289q-39 -164 -140 -235.5t-290 -71.5h-141q-190 0 -271 68.5 t-81 234.5zM483 629h355l6 59q6 47 6 82q0 68 -31 94.5t-106 26.5h-43q-90 0 -127 -41t-51 -152z" />
<glyph unicode="f" horiz-adv-x="729" d="M168 819l27 221h116q0 43 4 66.5t7 36.5q23 180 101.5 263t233.5 83h226l-25 -211h-57q-84 0 -126 -25.5t-50 -87.5l-17 -125h219l-26 -221h-219l-101 -819h-299l101 819h-115z" />
<glyph unicode="g" horiz-adv-x="1177" d="M143 -180q0 25 2 37l7 41h280q0 -53 23.5 -75t85.5 -22h49q86 0 119.5 45t46.5 162l20 158l-18 -4q-41 -70 -119 -96.5t-199 -26.5q-276 0 -276 285q0 45 6 104l27 217q27 219 116.5 321.5t261.5 102.5q98 0 169 -34t94 -99l18 4l14 113h293l-121 -992q-18 -141 -41 -211 q-31 -94 -98 -153q-49 -43 -131 -70.5t-172 -27.5h-115q-342 0 -342 221zM465 352q0 -68 27.5 -97.5t101.5 -29.5h41q92 0 127 50.5t49 173.5l20 165q6 55 7 97q0 68 -29 98.5t-100 30.5h-41q-92 0 -127 -50.5t-49 -175.5l-21 -165q-6 -55 -6 -97z" />
<glyph unicode="h" horiz-adv-x="1210" d="M164 0l182 1489h293l-72 -582l23 2q29 74 106.5 110t194.5 36q154 0 215 -55.5t61 -188.5v-61q-6 -45 -8 -68l-84 -682h-293l74 606q6 55 6 94q0 72 -30.5 93.5t-118.5 21.5q-96 0 -132 -49t-53 -180l-71 -586h-293z" />
<glyph unicode="i" horiz-adv-x="610" d="M158 0l127 1040h299l-127 -1040h-299zM313 1262l27 227h299l-27 -227h-299z" />
<glyph unicode="j" horiz-adv-x="620" d="M35 -303l24 209q55 0 80 27.5t31 86.5l127 1024h299l-119 -956q-27 -211 -92 -295q-76 -96 -246 -96h-104zM324 1264l26 227h299l-26 -227h-299z" />
<glyph unicode="k" horiz-adv-x="1138" d="M164 0l182 1489h293l-104 -854h36l254 405h332l-334 -495l264 -545h-344l-196 434h-37l-53 -434h-293z" />
<glyph unicode="l" horiz-adv-x="610" d="M168 0l182 1489h299l-182 -1489h-299z" />
<glyph unicode="m" horiz-adv-x="1720" d="M164 0l129 1053h278l-14 -140l14 2q45 82 118 117t181 35q113 0 162 -42t78 -169q59 119 138 165t190 46q137 0 191 -54.5t54 -185.5q0 -51 -10 -137l-84 -690h-289l76 614q2 27 5 50.5t3 48.5q0 68 -26.5 90t-102.5 22q-82 0 -114.5 -51t-48.5 -182l-72 -592h-287 l76 614q2 27 5 50.5t3 48.5q0 68 -26.5 90t-102.5 22q-82 0 -114.5 -51t-49.5 -182l-71 -592h-289z" />
<glyph unicode="n" horiz-adv-x="1210" d="M164 0l129 1053h282l-16 -138h19q51 86 125.5 119t189.5 33q154 0 215 -55.5t61 -188.5q0 -55 -4 -85t-6 -48l-84 -690h-293l76 614q6 55 6 93q0 74 -31.5 96t-119.5 22q-98 0 -133 -50t-52 -183l-71 -592h-293z" />
<glyph unicode="o" horiz-adv-x="1146" d="M154 289v71q6 37 8 54l26 225q29 238 128.5 333t322.5 95h141q190 0 271.5 -68.5t81.5 -234.5v-57q-7 -45 -9 -68l-26 -225q-29 -238 -128.5 -333t-322.5 -95h-141q-190 0 -271 68.5t-81 234.5zM455 322q0 -66 27.5 -91.5t101.5 -25.5h41q96 0 126.5 46t47.5 189l22 174 q4 33 7 59.5t3 59.5q0 66 -26.5 90.5t-99.5 24.5h-41q-96 0 -127 -46t-50 -188l-22 -174q-4 -33 -7 -59.5t-3 -58.5z" />
<glyph unicode="p" d="M115 -401l178 1454h282l-16 -135h19q49 80 126.5 115.5t180.5 35.5q145 0 214.5 -75.5t69.5 -231.5v-55q-6 -42 -8 -62l-28 -223q-27 -217 -118 -320.5t-263 -103.5q-100 0 -170 30.5t-93 96.5h-18l-63 -526h-293zM506 352q0 -68 26.5 -96.5t96.5 -28.5h39q88 0 125 54 q31 45 45 170l20 167q6 55 6 99q0 68 -26.5 96.5t-96.5 28.5h-39q-88 0 -121.5 -49.5t-48.5 -174.5l-20 -167q-6 -55 -6 -99z" />
<glyph unicode="q" d="M154 307q0 27 3 60.5t5 54.5l28 223q27 217 118 320.5t263 103.5q104 0 171 -35t98 -116h18l16 135h285l-178 -1454h-295l64 526l-19 -4q-37 -63 -113.5 -93t-177.5 -30q-147 0 -216.5 76t-69.5 233zM461 352q0 -68 26.5 -96.5t96.5 -28.5h39q88 0 120.5 49.5t47.5 174.5 l20 167q2 27 5 50.5t3 50.5q0 66 -26.5 94.5t-96.5 28.5h-39q-88 0 -121.5 -49.5t-48.5 -174.5l-20 -167q-6 -55 -6 -99z" />
<glyph unicode="r" horiz-adv-x="1019" d="M164 0l129 1053h282l-16 -133l14 2q45 80 113 112.5t164 32.5q127 0 176 -53t49 -178q0 -39 -4 -79t-6 -67l-8 -76h-273l7 50q4 37 4 51q0 63 -26 86.5t-85 23.5q-78 0 -107.5 -49t-48.5 -184l-71 -592h-293z" />
<glyph unicode="s" horiz-adv-x="1150" d="M131 227v25q4 18 4 27l-2 -9h309q0 -59 34 -82.5t110 -23.5h45q88 0 127 27.5t47 101.5q2 10 2 31q0 51 -31 71.5t-117 28.5l-210 22q-119 10 -185.5 73t-66.5 157q0 20 2 31l12 88q31 272 405 272h207q307 0 307 -219q0 -29 -2 -45l-292 -2q0 90 -136 90h-43 q-80 0 -116.5 -30t-41.5 -66.5t-5 -45v-12.5q0 -39 24.5 -59.5t79.5 -26.5l236 -22q276 -25 276 -209q0 -25 -2 -37l-12 -92q-16 -141 -121 -223t-273 -82h-223q-348 0 -348 241z" />
<glyph unicode="t" horiz-adv-x="1034" d="M156 836l26 211h121l25 208h293l-25 -208h446l-26 -211h-447l-57 -465q-6 -47 -6 -80q0 -55 23.5 -74.5t91.5 -19.5q76 0 103.5 27.5t37.5 111.5l8 70h238l-13 -103q-39 -317 -342 -317h-178q-176 0 -239 102q-16 27 -23.5 55.5t-7.5 67.5q0 23 3 55.5t5 50.5l8 60 l55 459h-120z" />
<glyph unicode="u" horiz-adv-x="1218" d="M199 227q0 55 4 85t6 48l84 693h293l-76 -613q-6 -55 -6 -92q0 -76 30.5 -97.5t120.5 -21.5q96 0 132 50.5t53 179.5l71 594h293l-129 -1053h-282l16 135l-18 -2q-51 -82 -127 -114.5t-189 -32.5q-154 0 -215 55t-61 186z" />
<glyph unicode="v" horiz-adv-x="1112" d="M162 1053h315l98 -811l316 811h315l-426 -1053h-465z" />
<glyph unicode="w" horiz-adv-x="1609" d="M199 1053h293l14 -801l258 801h362l62 -797l207 797h291l-297 -1053h-422l-62 741l-239 -741h-430z" />
<glyph unicode="x" horiz-adv-x="1146" d="M78 0l356 553l-188 500h327l93 -408l200 408h318l-312 -504l218 -549h-332l-119 440l-236 -440h-325z" />
<glyph unicode="y" horiz-adv-x="1101" d="M129 -393l25 200h53q57 0 106 33t66 76l33 107l-256 1021h303l137 -739l264 739h314l-531 -1187q-55 -141 -123 -197q-80 -63 -229 -63q-59 0 -162 10z" />
<glyph unicode="z" horiz-adv-x="1091" d="M115 0l32 264l598 572h-497l26 217h830l-33 -265l-588 -565h533l-27 -223h-874z" />
<glyph unicode="{" horiz-adv-x="790" d="M74 455v192q72 0 106 12q61 23 62 86v467q0 133 86 215q70 68 143 68h176v-201h-78q-61 0 -82 -34q-12 -20 -12 -76v-434q0 -104 -74 -158q-47 -33 -122 -43q80 -10 122 -41q74 -53 74 -176v-438q0 -55 10 -74q18 -33 84 -33h78v-201h-176q-72 0 -141 66q-88 84 -88 213 v471q0 76 -60 102q-37 16 -108 17z" />
<glyph unicode="|" horiz-adv-x="647" d="M262 -414v1909h164v-1909h-164z" />
<glyph unicode="}" horiz-adv-x="790" d="M152 -213h77q61 0 82 33q12 20 13 74v438q0 123 73 176q43 31 123 41q-76 10 -123 43q-74 53 -73 158v434q0 57 -11 76q-18 35 -84 34h-77v201h176q72 0 141 -68q88 -84 88 -215v-467q0 -66 59 -86q35 -12 109 -12v-192q-70 0 -107 -17q-61 -29 -61 -102v-471 q0 -129 -86 -211q-72 -68 -143 -68h-176v201z" />
<glyph unicode="~" d="M123 479q16 109 59 183q72 121 195 120q82 0 235.5 -98t198.5 -98q51 0 76 45q18 35 18 86h160q0 -123 -74 -217q-66 -82 -164 -82q-63 0 -237 98t-213 98q-59 0 -85 -44t-26 -91h-143z" />
<glyph unicode="&#xa0;" horiz-adv-x="710" d="M115 614q0 109 74.5 183.5t183.5 74.5q104 0 179 -74.5t75 -183.5q0 -104 -75 -179t-179 -75q-109 0 -183.5 73t-74.5 181z" />
<glyph unicode="&#xa1;" horiz-adv-x="704" d="M211 0l108 879h287l-108 -879h-287zM354 1165l39 324h287l-39 -324h-287z" />
<glyph unicode="&#xa2;" horiz-adv-x="1140" d="M154 289v71q6 37 8 54l26 225q29 238 128.5 333t322.5 95h12l29 236h123l-29 -236q184 0 279 -102q82 -88 82 -226q-1 -18 -5 -51h-294q2 12 2 35q0 100 -90 121l-80 -637q61 12 90.5 58t40.5 126h295q-29 -238 -125.5 -321.5t-321.5 -83.5l-35 -244h-123l29 244h-12 q-190 0 -271 68.5t-81 234.5zM457 324q0 -57 18.5 -84t69.5 -33l80 639q-70 -8 -96.5 -56.5t-41.5 -175.5l-22 -174q-8 -63 -8 -116z" />
<glyph unicode="&#xa3;" horiz-adv-x="1411" d="M178 0l37 297q61 6 101 46t49 103l18 158h-168l29 232h168l30 254q25 197 154 307t338 110h106q199 0 307.5 -77.5t108.5 -212.5q0 -29 -2 -43l-10 -91h-318l4 33q6 57 -26.5 92t-95.5 35h-70q-139 0 -156 -131l-34 -276h382l-28 -232h-383q-14 -113 -55 -175t-160 -132 h874l-37 -297h-1163z" />
<glyph unicode="&#xa4;" horiz-adv-x="1136" d="M74 1094l143 139l160 -160q82 61 221 62q61 0 117.5 -16.5t91.5 -41.5l160 160l139 -139l-164 -160q20 -37 41 -74q29 -59 29 -119q0 -78 -27 -145q-8 -20 -47 -92l156 -156l-140 -135l-155 160q-68 -37 -84 -43q-57 -23 -129 -23q-117 0 -205 70l-164 -164l-135 135 l160 164q-74 88 -74 215q0 137 70 203zM373 713q0 -88 64.5 -146.5t152.5 -58.5q109 0 168 70q49 57 49 135q0 90 -61.5 161.5t-155.5 71.5q-96 0 -156.5 -70.5t-60.5 -162.5z" />
<glyph unicode="&#xa5;" horiz-adv-x="1126" d="M188 369l15 123h315l14 106h-315l14 123h304l-345 725h259l241 -524l365 524h254l-508 -725h303l-14 -123h-316l-14 -106h315l-14 -123h-316l-45 -369h-241l45 369h-316z" />
<glyph unicode="&#xa6;" horiz-adv-x="647" d="M262 -414v852l164 -110v-742h-164zM262 827v668h164v-778z" />
<glyph unicode="&#xa7;" horiz-adv-x="1126" d="M86 496q0 104 33 173.5t94 116.5q-39 35 -56.5 78t-17.5 107q0 225 187 319q113 57 276 58q240 0 367 -127q104 -104 104 -250h-274q0 70 -54.5 114.5t-158.5 44.5q-66 0 -109 -22q-59 -31 -59 -92q0 -66 176 -107q262 -63 330 -94q178 -84 178 -250q0 -104 -33 -173.5 t-94 -121.5q74 -68 74 -180q0 -227 -187 -321q-117 -59 -276 -60q-240 0 -367 127q-104 104 -104 254h274q0 -74 53.5 -119t159.5 -45q66 0 109 23q59 31 59 96q0 66 -176 107q-262 63 -330 94q-178 84 -178 250zM381 545q0 -82 71.5 -121t178.5 -39q94 0 135 34t41 97 q0 78 -72.5 119t-177.5 41q-94 0 -135 -35t-41 -96z" />
<glyph unicode="&#xa8;" horiz-adv-x="1007" d="M393 1239l31 246h184l-30 -246h-185zM741 1239l31 246h184l-30 -246h-185z" />
<glyph unicode="&#xa9;" horiz-adv-x="1495" d="M-16 745q0 324 229 553.5t557 229.5q324 0 553 -229.5t229 -553.5t-229 -555t-553 -231q-326 0 -556 230.5t-230 555.5zM131 745q0 -264 185.5 -451.5t453.5 -187.5q262 0 448.5 186.5t186.5 452.5q0 262 -186.5 448.5t-448.5 186.5q-266 0 -452.5 -186t-186.5 -449z M369 750q0 201 115.5 325.5t314.5 124.5q143 0 243.5 -78t124.5 -217h-176q-12 72 -66.5 114t-129.5 42q-121 0 -185.5 -89t-64.5 -218q0 -121 70.5 -218.5t187.5 -97.5q74 0 128 46t60 118h176q-14 -137 -118.5 -220t-245.5 -83q-195 0 -314.5 128t-119.5 323z" />
<glyph unicode="&#xaa;" horiz-adv-x="884" d="M88 936v74q0 186 219 186h68q57 0 98 -22.5t92 -92.5v217q0 90 -90 91h-43q-88 0 -96 -56h-211q0 90 59.5 128t186.5 38h121q156 0 220 -52t64 -183v-510h-211v108q-53 -70 -97 -95.5t-99 -25.5h-93q-92 0 -140 50.5t-48 144.5zM301 958q0 -90 98 -90h68q96 0 96 90v41 q0 88 -96 88h-68q-98 0 -98 -88v-41z" />
<glyph unicode="&#xab;" horiz-adv-x="1126" d="M256 451l29 237l377 299l-29 -233l-227 -185l182 -180l-29 -242zM694 455l29 237l377 299l-29 -233l-227 -185l184 -180l-31 -241z" />
<glyph unicode="&#xac;" d="M86 610v234h1032v-594h-233v360h-799z" />
<glyph unicode="&#xad;" horiz-adv-x="677" d="M70 426v279h557v-279h-557z" />
<glyph unicode="&#xae;" horiz-adv-x="1495" d="M-16 745q0 324 229 553.5t557 229.5q324 0 553 -229.5t229 -553.5t-229 -555t-553 -231q-326 0 -556 230.5t-230 555.5zM131 745q0 -268 185.5 -453.5t453.5 -185.5q264 0 449.5 185.5t185.5 453.5q0 264 -185.5 449.5t-449.5 185.5q-266 0 -452.5 -184t-186.5 -451z M446 319v844h410q70 0 127 -8t102 -33q51 -35 75 -92t24 -125q0 -229 -230 -229l205 -357h-192l-189 357h-168v-357h-164zM610 803h250q80 0 115 22q45 29 45 105q0 72 -72 96q-41 14 -133 14h-205v-237z" />
<glyph unicode="&#xaf;" horiz-adv-x="1007" d="M399 1282l19 156h532l-18 -156h-533z" />
<glyph unicode="&#xb0;" horiz-adv-x="813" d="M111 1180q0 127 90 217t217 90t217 -90t90 -217t-90 -217.5t-217 -90.5t-217 88.5t-90 219.5zM233 1180q0 -78 53.5 -131.5t131.5 -53.5t131 53.5t53 131.5q0 74 -53 129t-131 55q-76 0 -130.5 -54.5t-54.5 -129.5z" />
<glyph unicode="&#xb1;" d="M98 -20h992v-246h-992v246zM98 598v246h373v373h246v-373h373v-246h-373v-373h-246v373h-373z" />
<glyph unicode="&#xb2;" horiz-adv-x="929" d="M162 512l26 227q27 205 181 250l299 90q49 14 70.5 35t27.5 64l4 41q2 10 2 30q0 45 -25.5 63.5t-89.5 18.5h-43q-72 0 -102.5 -24.5t-38.5 -87.5l-6 -43h-215l10 75q31 256 324 256h143q129 0 199.5 -55t70.5 -156q0 -27 -2 -39l-10 -81q-25 -211 -201 -261l-288 -75 q-70 -18 -76 -78l-8 -53h510l-23 -197h-739z" />
<glyph unicode="&#xb3;" horiz-adv-x="929" d="M178 713q0 23 2 35l8 75h222l-4 -32q-2 -16 -3 -23q0 -90 119 -90h47q129 0 142 106l4 35q2 8 2 25q0 84 -117 84h-68l21 174h65q119 0 132 104l4 27q12 100 -107 100h-41q-119 0 -133 -114l-2 -21h-219l6 55q33 254 338 254h106q283 0 283 -207q0 -22 -2 -34l-8 -64 q-14 -135 -158 -166l-4 -28q131 -35 131 -156q0 -25 -2 -37l-10 -74q-14 -115 -101.5 -178t-230.5 -63h-149q-131 0 -202 56t-71 157z" />
<glyph unicode="&#xb4;" horiz-adv-x="1007" d="M526 1180l219 370h201l-323 -370h-97z" />
<glyph unicode="&#xb5;" horiz-adv-x="1212" d="M63 -451l193 1561h287l-86 -688q-4 -18 -6 -35.5t-2 -42.5q0 -63 34 -94q45 -41 158 -41q115 10 174 72q39 39 57 112l89 717h286l-137 -1110h-287l17 139q-70 -94 -150 -139q-61 -35 -147 -49q-63 0 -142 12l-51 -414h-287z" />
<glyph unicode="&#xb6;" horiz-adv-x="1126" d="M51 1026q0 180 120 324.5t271 144.5h652v-147h-156v-1799h-147v1799h-173v-1799h-147v996q-176 16 -276 108q-121 111 -142 330q-2 14 -2 43z" />
<glyph unicode="&#xb7;" horiz-adv-x="567" d="M229 770l37 299h307l-36 -299h-308z" />
<glyph unicode="&#xb8;" horiz-adv-x="1007" d="M272 -481l13 96h219q61 0 85.5 22.5t29 55.5t4.5 49q0 72 -86 72h-123l22 186h103l-13 -106h119q113 0 113 -127v-25q-4 -19 -4 -27q-14 -119 -70.5 -157.5t-198.5 -38.5h-213z" />
<glyph unicode="&#xb9;" horiz-adv-x="929" d="M276 1208l361 287h270l-121 -983h-219l95 770l-273 -223z" />
<glyph unicode="&#xba;" horiz-adv-x="860" d="M88 1040v160q0 166 64.5 232.5t228.5 66.5h104q164 0 228.5 -66.5t64.5 -232.5v-160q0 -166 -64.5 -232.5t-228.5 -66.5h-104q-164 0 -228.5 66.5t-64.5 232.5zM303 1059q0 -106 20.5 -140t94.5 -34h31q74 0 94 34t20 140v125q0 106 -16 135q-23 37 -98 37h-31 q-74 0 -94.5 -34t-20.5 -138v-125z" />
<glyph unicode="&#xbb;" horiz-adv-x="1126" d="M219 147l29 242l227 180l-182 185l29 233l303 -299l-29 -237zM645 147l29 242l227 180l-182 185l29 233l303 -299l-29 -237z" />
<glyph unicode="&#xbc;" horiz-adv-x="2301" d="M276 1208l361 287h270l-121 -983h-219l95 770l-273 -223zM647 0l1041 1495h180l-1057 -1495h-164zM1413 193l29 247l446 543h334l-76 -614h117l-20 -176h-117l-25 -193h-219l25 193h-494zM1612 369h315l58 460z" />
<glyph unicode="&#xbd;" horiz-adv-x="2332" d="M276 1208l361 287h270l-121 -983h-219l95 770l-273 -223zM647 0l1041 1495h180l-1057 -1495h-164zM1491 0l29 227q25 205 180 250l297 90q49 14 70.5 35t27.5 64l4 41q2 10 2 30q0 45 -25.5 63.5t-88.5 18.5h-43q-72 0 -103 -24.5t-39 -87.5l-4 -43h-215l8 75 q31 256 326 256h143q129 0 200 -56t71 -159q0 -23 -2 -35l-11 -81q-27 -211 -202 -261l-287 -75q-70 -18 -78 -78l-6 -53h510l-25 -197h-739z" />
<glyph unicode="&#xbe;" horiz-adv-x="2301" d="M178 713q0 23 2 35l8 75h222l-4 -32q-2 -16 -3 -23q0 -90 119 -90h47q129 0 142 106l4 35q2 8 2 25q0 84 -117 84h-68l21 174h65q119 0 132 104l4 27q12 100 -107 100h-41q-119 0 -133 -114l-2 -21h-219l6 55q33 254 338 254h106q283 0 283 -207q0 -22 -2 -34l-8 -64 q-14 -135 -158 -166l-4 -28q131 -35 131 -156q0 -25 -2 -37l-10 -74q-14 -115 -101.5 -178t-230.5 -63h-149q-131 0 -202 56t-71 157zM647 0l1041 1495h180l-1057 -1495h-164zM1413 193l29 247l446 543h334l-76 -614h117l-20 -176h-117l-25 -193h-219l25 193h-494zM1612 369 h315l58 460z" />
<glyph unicode="&#xbf;" horiz-adv-x="1159" d="M127 242q0 29 2 43l18 149q10 92 68 168q39 55 117 103q102 55 160 86q88 45 98 129l4 26h311l-12 -102q-12 -88 -47 -138.5t-105 -87.5l-186 -94q-86 -47 -96 -102l-10 -94q-2 -8 -3 -25q0 -86 109 -86h88q137 0 150 117l4 35h307l-8 -70q-18 -145 -124 -229t-280 -84 h-237q-158 0 -243 68.5t-85 187.5zM621 1169l41 324h311l-41 -324h-311z" />
<glyph unicode="&#xc0;" horiz-adv-x="1515" d="M63 0l599 1479h581l223 -1479h-383l-34 266h-502l-101 -266h-383zM643 535h379l-76 669h-59zM760 1985h201l133 -336h-97z" />
<glyph unicode="&#xc1;" horiz-adv-x="1515" d="M63 0l599 1479h581l223 -1479h-383l-34 266h-502l-101 -266h-383zM643 535h379l-76 669h-59zM840 1649l215 336h200l-319 -336h-96z" />
<glyph unicode="&#xc2;" horiz-adv-x="1515" d="M63 0l599 1479h581l223 -1479h-383l-34 266h-502l-101 -266h-383zM643 535h379l-76 669h-59zM686 1649l215 336h213l133 -336h-96l-154 233l-217 -233h-94z" />
<glyph unicode="&#xc3;" horiz-adv-x="1515" d="M63 0l599 1479h581l223 -1479h-383l-34 266h-502l-101 -266h-383zM643 535h379l-76 671h-59zM682 1698q68 199 203 198q20 0 38.5 -2t39.5 -10l88 -26q20 -8 61 -9q72 0 113 86h67q-72 -207 -207 -206q-31 0 -67 12l-84 24q-43 14 -70 15q-72 0 -114 -82h-68z" />
<glyph unicode="&#xc4;" horiz-adv-x="1515" d="M63 0l599 1481h581l223 -1481h-383l-34 266h-502l-101 -266h-383zM643 535h379l-76 671h-59zM709 1710l24 209h185l-25 -209h-184zM1057 1710l24 209h185l-25 -209h-184z" />
<glyph unicode="&#xc5;" horiz-adv-x="1515" d="M63 0l599 1479h200q-70 55 -100.5 107t-30.5 108q0 18 2 28q12 104 93 177t184 73q94 0 155.5 -63.5t61.5 -155.5q0 -20 -2 -31q-8 -68 -47 -120q-45 -61 -144 -123h209l223 -1479h-383l-34 266h-502l-101 -266h-383zM643 535h379l-76 669h-59zM838 1733q0 -156 125 -156 q61 0 106 41t53 104q8 59 -28.5 102.5t-96.5 43.5q-63 0 -111 -40t-48 -95z" />
<glyph unicode="&#xc6;" horiz-adv-x="1988" d="M-12 0l762 1489h1275l-32 -279h-572l-41 -325h555l-30 -244h-555l-43 -358h585l-34 -283h-928l41 326h-451l-151 -326h-381zM637 573h362l82 666h-129z" />
<glyph unicode="&#xc7;" horiz-adv-x="1425" d="M180 403q0 80 13 183l38 317q41 334 178.5 469t444.5 135h111q264 0 375.5 -87t111.5 -298q0 -39 -2 -62.5t-8 -80.5l-2 -8h-357l2 6q4 37 5 53q0 86 -49.5 123t-161.5 37q-152 0 -205 -68q-45 -59 -70 -252l-31 -254q-12 -90 -12 -149q0 -96 44 -132t165 -36 q133 0 189.5 49t72.5 184l2 15h365l-4 -23q-35 -289 -174.5 -415.5t-417.5 -126.5h-62l-10 -74h119q115 0 115 -129l-4 -49q-14 -119 -70.5 -158t-198.5 -39h-213l13 96h219q59 0 83.5 22.5t32.5 80.5q2 8 2 24q0 72 -86 72h-122l18 154q-246 0 -352.5 98t-106.5 323z" />
<glyph unicode="&#xc8;" horiz-adv-x="1386" d="M168 0l182 1479h1077l-36 -297h-719l-37 -305h698l-30 -250h-699l-41 -330h735l-36 -297h-1094zM711 1985h200l133 -336h-96z" />
<glyph unicode="&#xc9;" horiz-adv-x="1386" d="M168 0l182 1479h1077l-36 -297h-719l-37 -305h698l-30 -250h-699l-41 -330h735l-36 -297h-1094zM791 1649l215 336h200l-319 -336h-96z" />
<glyph unicode="&#xca;" horiz-adv-x="1386" d="M168 0l182 1479h1077l-36 -297h-719l-37 -305h698l-30 -250h-699l-41 -330h735l-36 -297h-1094zM637 1649l215 336h213l133 -336h-96l-154 233l-217 -233h-94z" />
<glyph unicode="&#xcb;" horiz-adv-x="1386" d="M168 0l182 1481h1077l-36 -297h-719l-37 -307h698l-30 -250h-699l-41 -330h735l-36 -297h-1094zM659 1710l25 209h184l-24 -209h-185zM1008 1710l24 209h185l-25 -209h-184z" />
<glyph unicode="&#xcc;" horiz-adv-x="714" d="M180 0l182 1479h363l-182 -1479h-363zM356 1985h201l133 -336h-96z" />
<glyph unicode="&#xcd;" horiz-adv-x="714" d="M180 0l182 1479h363l-182 -1479h-363zM436 1649l215 336h201l-320 -336h-96z" />
<glyph unicode="&#xce;" horiz-adv-x="714" d="M180 0l182 1479h363l-182 -1479h-363zM283 1649l215 336h213l133 -336h-96l-154 233l-217 -233h-94z" />
<glyph unicode="&#xcf;" horiz-adv-x="714" d="M180 0l182 1481h363l-182 -1481h-363zM305 1710l25 209h184l-25 -209h-184zM653 1710l25 209h184l-24 -209h-185z" />
<glyph unicode="&#xd0;" horiz-adv-x="1560" d="M78 829l201 70l71 590h737q262 0 376 -95.5t114 -320.5q0 -78 -12 -174l-39 -309q-41 -328 -176.5 -459t-444.5 -131h-737l78 637l-113 -39zM563 299h318q158 0 208 60.5t74 258.5l31 252q12 90 12 150q0 98 -46 134t-171 36h-317l-19 -160l138 47l55 -231l-225 -78z" />
<glyph unicode="&#xd1;" horiz-adv-x="1718" d="M168 0l182 1479h561l320 -1117l39 9l137 1108h340l-182 -1479h-559l-320 1128l-41 -8l-137 -1120h-340zM784 1698q68 199 203 198q20 0 38.5 -2t39.5 -10l88 -26q20 -8 61 -9q72 0 113 86h68q-72 -207 -207 -206q-31 0 -68 12l-84 24q-43 14 -69 15q-72 0 -115 -82h-68z " />
<glyph unicode="&#xd2;" horiz-adv-x="1523" d="M180 406q0 78 13 176l38 315q41 332 177.5 466t445.5 134h197q264 0 376.5 -96t112.5 -328q0 -78 -12 -176l-39 -315q-41 -330 -178 -465t-447 -135h-196q-264 0 -376 97t-112 327zM551 465q0 -96 46 -132t171 -36h74q160 0 210 60.5t74 254.5l31 252q4 43 8 83t4 63 q0 100 -46 136t-173 36h-73q-158 0 -208.5 -60.5t-74.5 -257.5l-31 -252q-12 -90 -12 -147zM766 1985h201l133 -336h-96z" />
<glyph unicode="&#xd3;" horiz-adv-x="1523" d="M180 406q0 78 13 176l38 315q41 332 177.5 466t445.5 134h197q264 0 376.5 -96t112.5 -328q0 -78 -12 -176l-39 -315q-41 -330 -178 -465t-447 -135h-196q-264 0 -376 97t-112 327zM551 465q0 -96 46 -132t171 -36h74q160 0 210 60.5t74 254.5l31 252q4 43 8 83t4 63 q0 100 -46 136t-173 36h-73q-158 0 -208.5 -60.5t-74.5 -257.5l-31 -252q-12 -90 -12 -147zM846 1649l215 336h201l-320 -336h-96z" />
<glyph unicode="&#xd4;" horiz-adv-x="1523" d="M180 406q0 78 13 176l38 315q41 332 177.5 466t445.5 134h197q264 0 376.5 -96t112.5 -328q0 -78 -12 -176l-39 -315q-41 -330 -178 -465t-447 -135h-196q-264 0 -376 97t-112 327zM551 465q0 -96 46 -132t171 -36h74q160 0 210 60.5t74 254.5l31 252q4 43 8 83t4 63 q0 100 -46 136t-173 36h-73q-158 0 -208.5 -60.5t-74.5 -257.5l-31 -252q-12 -90 -12 -147zM692 1649l215 336h213l133 -336h-96l-153 233l-218 -233h-94z" />
<glyph unicode="&#xd5;" horiz-adv-x="1523" d="M180 406q0 78 13 176l38 315q41 332 178.5 467t444.5 135h197q266 0 377.5 -97t111.5 -329q0 -78 -12 -176l-39 -315q-41 -330 -178 -465t-447 -135h-196q-264 0 -376 97t-112 327zM551 465q0 -96 46 -132t171 -36h74q160 0 210 60.5t74 254.5l31 252q6 66 9 93.5t3 54.5 q0 98 -46 134t-173 36h-73q-158 0 -208.5 -60.5t-74.5 -257.5l-31 -252q-12 -90 -12 -147zM688 1698q68 199 203 198q25 0 41 -2t37 -12l88 -24q20 -8 61 -9q72 0 113 86h67q-72 -207 -206 -206q-31 0 -68 12l-84 24q-23 6 -39 9.5t-31 3.5q-74 0 -114 -80h-68z" />
<glyph unicode="&#xd6;" horiz-adv-x="1523" d="M180 406q0 78 13 176l38 315q41 332 178.5 467t444.5 135h197q266 0 377.5 -97t111.5 -329q0 -78 -12 -176l-39 -315q-41 -330 -178 -465t-447 -135h-196q-264 0 -376 97t-112 327zM551 465q0 -96 46 -132t171 -36h74q160 0 210 60.5t74 256.5l31 250q6 66 9 93.5t3 54.5 q0 98 -46 134t-173 36h-73q-158 0 -208.5 -60.5t-74.5 -257.5l-31 -250q-12 -90 -12 -149zM715 1710l24 209h185l-25 -209h-184zM1063 1710l24 209h185l-25 -209h-184z" />
<glyph unicode="&#xd7;" d="M133 168l307 307l-307 307l174 174l307 -307l308 307l174 -174l-308 -307l308 -307l-174 -174l-308 307l-307 -307z" />
<glyph unicode="&#xd8;" horiz-adv-x="1523" d="M10 -246l266 340q-96 96 -96 309q0 80 13 183l38 317q41 334 178.5 469t444.5 135h197q182 0 290 -45l172 221h181l-238 -301q84 -98 84 -299q0 -82 -12 -180l-39 -317q-41 -334 -178 -469t-447 -135h-196q-178 0 -283 41l-211 -269h-164zM551 449l557 714 q-47 27 -158 27h-73q-158 0 -208.5 -60.5t-74.5 -259.5l-31 -254q-12 -104 -12 -167zM621 319q47 -20 147 -20h74q160 0 210 60.5t74 256.5l31 254q12 87 12 148z" />
<glyph unicode="&#xd9;" horiz-adv-x="1564" d="M201 377q0 84 16 205l111 897h356l-106 -867q-8 -63 -9.5 -77.5t-1.5 -53.5q0 -106 47.5 -145t176.5 -39h73q158 0 211 61.5t78 253.5l107 867h356l-111 -897q-23 -180 -45 -254q-35 -115 -114.5 -198t-188 -115.5t-270.5 -32.5h-197q-168 0 -256 28q-104 35 -166 121 q-37 51 -52 109.5t-15 136.5zM786 1985h201l133 -336h-96z" />
<glyph unicode="&#xda;" horiz-adv-x="1564" d="M201 377q0 84 16 205l111 897h356l-106 -867q-8 -63 -9.5 -77.5t-1.5 -53.5q0 -106 47.5 -145t176.5 -39h73q158 0 211 61.5t78 253.5l107 867h356l-111 -897q-23 -180 -45 -254q-35 -115 -114.5 -198t-188 -115.5t-270.5 -32.5h-197q-168 0 -256 28q-104 35 -166 121 q-37 51 -52 109.5t-15 136.5zM866 1649l215 336h201l-319 -336h-97z" />
<glyph unicode="&#xdb;" horiz-adv-x="1564" d="M201 377q0 84 16 205l111 897h356l-106 -867q-8 -63 -9.5 -77.5t-1.5 -53.5q0 -106 47.5 -145t176.5 -39h73q158 0 211 61.5t78 253.5l107 867h356l-111 -897q-23 -180 -45 -254q-35 -115 -114.5 -198t-188 -115.5t-270.5 -32.5h-197q-168 0 -256 28q-104 35 -166 121 q-37 51 -52 109.5t-15 136.5zM713 1649l215 336h213l133 -336h-96l-154 233l-217 -233h-94z" />
<glyph unicode="&#xdc;" horiz-adv-x="1564" d="M201 377q0 84 16 205l111 897h356l-106 -865q-10 -86 -11 -133q0 -106 47.5 -145t176.5 -39h73q158 0 211 61.5t78 255.5l107 865h356l-111 -897q-23 -180 -45 -254q-35 -115 -114.5 -198t-188 -115.5t-270.5 -32.5h-197q-168 0 -256 28q-104 35 -166 121 q-37 51 -52 109.5t-15 136.5zM735 1710l25 209h184l-24 -209h-185zM1083 1710l25 209h184l-24 -209h-185z" />
<glyph unicode="&#xdd;" horiz-adv-x="1390" d="M209 1479h403l203 -613l346 613h400l-615 -961l-63 -518h-359l62 518zM778 1649l215 336h201l-320 -336h-96z" />
<glyph unicode="&#xde;" horiz-adv-x="1452" d="M168 0l182 1489h359l-23 -186h320q250 0 363.5 -84t113.5 -285v-70q-6 -33 -8 -47l-13 -102q-33 -266 -170 -378t-418 -112h-319l-29 -225h-358zM590 524h299q111 0 151.5 39t55.5 162l12 90q4 33 4 47q0 76 -42 109t-138 33h-283z" />
<glyph unicode="&#xdf;" horiz-adv-x="1165" d="M160 0l137 1118q47 371 403 371h125q150 0 230 -63.5t80 -184.5v-24q-4 -18 -5 -27l-14 -115q-10 -90 -52 -138t-167 -95q133 -23 189.5 -79t56.5 -159v-26q0 -17 -4 -46l-23 -186q-25 -195 -116 -277.5t-281 -82.5h-53q-35 6 -52 8l25 211h18q78 0 113 38t47 134l23 196 q2 14 2 25.5v15.5q0 59 -31 86t-102 27l20 180q53 8 75.5 35t31.5 88l14 113q2 10 2 31q0 100 -113 100q-70 0 -100.5 -37t-42.5 -129l-135 -1108h-301z" />
<glyph unicode="&#xe0;" horiz-adv-x="1179" d="M139 211q0 12 2 28.5t2 26.5l13 101q16 129 100 198.5t231 69.5h93q72 0 125 -30t104 -107l33 270q2 10 2 18.5v12.5q0 86 -101 86h-57q-115 0 -135 -78h-293q25 135 111 191.5t256 56.5h159q188 0 270.5 -58.5t82.5 -197.5q-1 -37 -7 -80l-88 -719h-294l16 141 q-76 -88 -137.5 -121.5t-137.5 -33.5h-120q-229 0 -230 225zM444 270q0 -90 111 -90h92q119 0 135 115l6 57q2 8 3 25q0 90 -109 90h-92q-121 0 -137 -115l-7 -57q-2 -8 -2 -25zM555 1548h201l133 -338h-96z" />
<glyph unicode="&#xe1;" horiz-adv-x="1179" d="M139 211q0 12 2 28.5t2 26.5l13 101q16 129 100 198.5t231 69.5h93q72 0 125 -30t104 -107l33 270q2 10 2 18.5v12.5q0 86 -101 86h-57q-115 0 -135 -78h-293q25 135 111 191.5t256 56.5h159q188 0 270.5 -58.5t82.5 -197.5q-1 -37 -7 -80l-88 -719h-294l16 141 q-76 -88 -137.5 -121.5t-137.5 -33.5h-120q-229 0 -230 225zM444 270q0 -90 111 -90h92q119 0 135 115l6 57q2 8 3 25q0 90 -109 90h-92q-121 0 -137 -115l-7 -57q-2 -8 -2 -25zM635 1210l215 338h201l-320 -338h-96z" />
<glyph unicode="&#xe2;" horiz-adv-x="1179" d="M139 211q0 12 2 28.5t2 26.5l13 101q16 129 100 198.5t231 69.5h93q72 0 125 -30t104 -107l33 270q2 10 2 18.5v12.5q0 86 -101 86h-57q-115 0 -135 -78h-293q25 135 111 191.5t256 56.5h159q188 0 270.5 -58.5t82.5 -197.5q-1 -37 -7 -80l-88 -719h-294l16 141 q-76 -88 -137.5 -121.5t-137.5 -33.5h-120q-229 0 -230 225zM444 270q0 -90 111 -90h92q119 0 135 115l6 57q2 8 3 25q0 90 -109 90h-92q-121 0 -137 -115l-7 -57q-2 -8 -2 -25zM481 1210l215 338h213l133 -338h-96l-153 236l-218 -236h-94z" />
<glyph unicode="&#xe3;" horiz-adv-x="1179" d="M139 211q0 12 2 28.5t2 26.5l13 101q16 129 101 199.5t230 70.5h93q74 0 126 -31t103 -108l33 270q2 10 2 18.5v12.5q0 86 -101 86h-57q-66 0 -94.5 -15.5t-40.5 -62.5h-293q25 135 111 191.5t256 56.5h159q188 0 270.5 -58.5t82.5 -195.5q-1 -37 -7 -80l-88 -721h-294 l16 141q-76 -88 -137.5 -121.5t-137.5 -33.5h-120q-229 0 -230 225zM444 270q0 -90 111 -90h92q119 0 135 115l6 57q2 8 3 25q0 90 -109 90h-92q-121 0 -137 -115l-7 -57q-2 -8 -2 -25zM477 1260q68 201 203 200q23 0 39 -3t39 -11l88 -25q20 -8 61 -8q72 0 113 86h67 q-72 -209 -208 -209q-29 0 -66 13l-84 26q-18 4 -37.5 8t-34.5 4q-72 0 -112 -81h-68z" />
<glyph unicode="&#xe4;" horiz-adv-x="1179" d="M139 211q0 12 2 28.5t2 26.5l13 101q16 129 101 199.5t230 70.5h93q74 0 126 -31t103 -108l33 272q2 10 2 18.5v12.5q0 84 -101 84h-57q-66 0 -94.5 -15.5t-40.5 -62.5h-293q25 135 111 191.5t256 56.5h159q188 0 270.5 -58.5t82.5 -195.5q-1 -37 -7 -80l-88 -721h-294 l16 141q-76 -88 -137.5 -121.5t-137.5 -33.5h-120q-229 0 -230 225zM444 270q0 -90 111 -90h92q119 0 135 115l6 57q2 8 3 25q0 92 -109 92h-92q-121 0 -137 -117l-7 -57q-2 -8 -2 -25zM502 1272l26 211h185l-27 -211h-184zM850 1272l27 211h184l-27 -211h-184z" />
<glyph unicode="&#xe5;" horiz-adv-x="1179" d="M139 209q0 12 2 29.5t2 25.5l13 103q16 129 100 198.5t231 69.5h93q74 0 126 -31t103 -108l33 270q2 10 2 18.5v12.5q0 86 -101 86h-57q-66 0 -94.5 -15.5t-40.5 -62.5h-293q25 135 111 191.5t256 56.5h159q188 0 270.5 -58.5t82.5 -195.5q-1 -37 -7 -80l-88 -719h-294 l16 141q-74 -88 -136.5 -121.5t-138.5 -33.5h-120q-229 0 -230 223zM444 270q0 -92 111 -92h92q119 0 135 117l6 55q2 8 3 25q0 92 -109 92h-92q-121 0 -137 -117l-7 -55q-2 -8 -2 -25zM551 1378q0 23 2 35q12 104 92 178t182 74q94 0 155.5 -63.5t61.5 -157.5q0 -21 -2 -31 q-14 -106 -93 -179t-183 -73q-92 0 -153.5 61.5t-61.5 155.5zM655 1423q0 -156 123 -155q63 0 108.5 41t53.5 104q8 61 -29 104.5t-96 43.5q-61 0 -110.5 -41t-49.5 -97z" />
<glyph unicode="&#xe6;" horiz-adv-x="1761" d="M139 213q0 12 2 28.5t2 26.5l13 103q16 129 102 200.5t231 71.5h93q74 0 126 -30.5t101 -108.5l35 274q2 10 2 29q0 88 -101 88h-57q-66 0 -94.5 -15.5t-40.5 -64.5h-293q25 135 112 193.5t255 58.5h159q88 0 137.5 -18.5t98.5 -85.5q49 63 100.5 83.5t134.5 20.5h142 q190 0 271 -68.5t81 -234.5v-57q-6 -45 -8 -68l-19 -152h-641l-18 -153q-2 -16 -2 -45q0 -61 31.5 -86t105.5 -25h41q74 0 109.5 23.5t56.5 91.5h289q-39 -164 -140.5 -235.5t-289.5 -71.5h-142q-137 0 -215 34.5t-125 131.5q-74 -88 -143.5 -127t-151.5 -39h-120 q-111 0 -170.5 59t-59.5 168zM444 274q0 -92 111 -92h92q119 0 135 117l6 57q2 8 3 25q0 92 -109 92h-92q-121 0 -137 -117l-7 -57q-2 -8 -2 -25zM1102 629h354l6 59q6 47 6 82q0 68 -30.5 94.5t-106.5 26.5h-43q-90 0 -127 -41t-51 -152z" />
<glyph unicode="&#xe7;" horiz-adv-x="1140" d="M154 289v48t8 77l26 225q29 238 128.5 333t322.5 95h141q180 0 275 -102q80 -88 80 -226q-1 -18 -5 -51h-294q2 10 2 33q0 59 -27 90q-33 37 -102 37h-45q-96 0 -127 -46t-50 -188l-22 -174q-4 -33 -7 -59.5t-3 -58.5q0 -66 27.5 -91.5t101.5 -25.5h45q84 0 120.5 45 t49.5 141h295q-29 -238 -125.5 -321.5t-321.5 -83.5h-69l-11 -86h119q113 0 113 -127v-25q-4 -18 -4 -27q-14 -117 -70.5 -156.5t-196.5 -39.5h-213l11 96h219q61 0 85.5 22.5t29 55.5t4.5 49q0 72 -86 72h-123l20 166q-170 0 -245.5 71.5t-75.5 231.5z" />
<glyph unicode="&#xe8;" horiz-adv-x="1144" d="M152 289v46t8 73l28 223q29 236 127.5 330t321.5 94h141q193 0 274 -68.5t81 -234.5v-58q-7 -43 -9 -63l-18 -150h-641l-19 -153q-2 -12 -2 -24.5v-18.5q0 -59 32 -84t106 -25h43q74 0 108.5 23.5t52.5 89.5h289q-37 -164 -137 -233.5t-291 -69.5h-141 q-193 0 -273.5 68.5t-80.5 234.5zM481 621h355l8 59q6 47 6 78q0 70 -31 96.5t-106 26.5h-43q-92 0 -129 -39t-52 -152zM520 1548h201l133 -338h-96z" />
<glyph unicode="&#xe9;" horiz-adv-x="1144" d="M152 289v46t8 73l28 223q29 236 127.5 330t321.5 94h141q193 0 274 -68.5t81 -234.5v-58q-7 -43 -9 -63l-18 -150h-641l-19 -153q-2 -12 -2 -24.5v-18.5q0 -59 32 -84t106 -25h43q74 0 108.5 23.5t52.5 89.5h289q-37 -164 -137 -233.5t-291 -69.5h-141 q-193 0 -273.5 68.5t-80.5 234.5zM481 621h355l8 59q6 47 6 78q0 70 -31 96.5t-106 26.5h-43q-92 0 -129 -39t-52 -152zM600 1210l215 338h201l-320 -338h-96z" />
<glyph unicode="&#xea;" horiz-adv-x="1144" d="M152 289v46t8 73l28 223q29 236 127.5 330t321.5 94h141q193 0 274 -68.5t81 -234.5v-58q-7 -43 -9 -63l-18 -150h-641l-19 -153q-2 -12 -2 -24.5v-18.5q0 -59 32 -84t106 -25h43q74 0 108.5 23.5t52.5 89.5h289q-37 -164 -137 -233.5t-291 -69.5h-141 q-193 0 -273.5 68.5t-80.5 234.5zM446 1210l216 338h212l134 -338h-97l-153 236l-217 -236h-95zM481 621h355l8 59q6 47 6 78q0 70 -31 96.5t-106 26.5h-43q-92 0 -129 -39t-52 -152z" />
<glyph unicode="&#xeb;" horiz-adv-x="1144" d="M154 285v73q6 35 8 52l26 223q29 233 127.5 327.5t321.5 94.5h141q193 0 274 -68.5t81 -232.5v-58q-7 -43 -9 -63l-18 -150h-641l-19 -153q-2 -12 -2 -24.5v-18.5q0 -61 32 -86t106 -25h43q74 0 108.5 23.5t52.5 89.5h289q-37 -164 -137 -233.5t-291 -69.5h-141 q-190 0 -271 68.5t-81 230.5zM467 1272l27 211h184l-27 -211h-184zM481 623h355l8 57q6 47 6 78q0 70 -31 96.5t-106 26.5h-43q-92 0 -129 -39t-52 -150zM815 1272l27 211h184l-27 -211h-184z" />
<glyph unicode="&#xec;" horiz-adv-x="610" d="M158 0l127 1040h299l-127 -1040h-299zM250 1548h201l133 -338h-97z" />
<glyph unicode="&#xed;" horiz-adv-x="610" d="M158 0l127 1040h299l-127 -1040h-299zM330 1210l215 338h200l-319 -338h-96z" />
<glyph unicode="&#xee;" horiz-adv-x="610" d="M158 0l127 1040h299l-127 -1040h-299zM176 1210l215 338h213l133 -338h-96l-154 236l-217 -236h-94z" />
<glyph unicode="&#xef;" horiz-adv-x="610" d="M158 0l127 1040h299l-127 -1040h-299zM197 1272l26 211h185l-27 -211h-184zM545 1272l26 211h185l-27 -211h-184z" />
<glyph unicode="&#xf0;" horiz-adv-x="1419" d="M188 295v33q4 25 5 34l16 142q25 201 129 297t301 96h145q78 0 134.5 -27.5t113.5 -101.5l39 322q0 10 2 26.5t2 32.5q0 57 -30.5 75.5t-124.5 18.5h-99q-90 0 -124.5 -26.5t-45.5 -106.5l-332 2l9 72q41 324 479 323h176q156 0 248 -43l239 129l97 -215l-189 -102 q20 -70 21 -174q0 -96 -15 -199l-38 -317q-41 -332 -161 -468t-388 -136h-176q-432 0 -433 313zM522 340q0 -55 37 -73.5t139 -18.5h80q115 0 156 25.5t51 111.5l14 115q2 14 2 25.5v15.5q0 57 -37.5 76.5t-138.5 19.5h-80q-119 0 -156.5 -24.5t-47.5 -112.5l-15 -115 q-4 -33 -4 -45z" />
<glyph unicode="&#xf1;" horiz-adv-x="1210" d="M164 0l129 1053h282l-16 -138h19q51 86 125.5 119t189.5 33q154 0 215 -55.5t61 -188.5q0 -55 -4 -85t-6 -48l-84 -690h-293l76 614q6 55 6 93q0 74 -31.5 96t-119.5 22q-98 0 -133 -50t-52 -183l-71 -592h-293zM492 1260q68 201 202 200q12 0 29.5 -1t48.5 -11l88 -27 q20 -8 62 -8q72 0 112 86h68q-72 -209 -209 -209q-23 0 -66 15l-84 24q-18 4 -37.5 8t-33.5 4q-72 0 -113 -81h-67z" />
<glyph unicode="&#xf2;" horiz-adv-x="1146" d="M152 289v46t8 73l28 223q29 236 127.5 330t321.5 94h141q193 0 274 -68.5t81 -234.5v-58q-7 -43 -9 -63l-28 -223q-29 -233 -127.5 -327.5t-321.5 -94.5h-141q-193 0 -273.5 68.5t-80.5 234.5zM455 319q0 -66 27.5 -91t101.5 -25h41q96 0 129 49q27 39 45 182l20 172 q8 59 9 71.5t1 45.5q0 66 -26.5 90.5t-100.5 24.5h-40q-96 0 -127 -46.5t-50 -185.5l-20 -172q-8 -59 -9 -70.5t-1 -44.5zM522 1548h201l133 -338h-96z" />
<glyph unicode="&#xf3;" horiz-adv-x="1146" d="M152 289v46t8 73l28 223q29 236 127.5 330t321.5 94h141q193 0 274 -68.5t81 -234.5v-58q-7 -43 -9 -63l-28 -223q-29 -233 -127.5 -327.5t-321.5 -94.5h-141q-193 0 -273.5 68.5t-80.5 234.5zM455 319q0 -66 27.5 -91t101.5 -25h41q96 0 129 49q27 39 45 182l20 172 q8 59 9 71.5t1 45.5q0 66 -26.5 90.5t-100.5 24.5h-40q-96 0 -127 -46.5t-50 -185.5l-20 -172q-8 -59 -9 -70.5t-1 -44.5zM602 1210l215 338h201l-320 -338h-96z" />
<glyph unicode="&#xf4;" horiz-adv-x="1146" d="M152 289v46t8 73l28 223q29 236 127.5 330t321.5 94h141q193 0 274 -68.5t81 -234.5v-58q-7 -43 -9 -63l-28 -223q-29 -233 -127.5 -327.5t-321.5 -94.5h-141q-193 0 -273.5 68.5t-80.5 234.5zM449 1210l215 338h213l133 -338h-97l-153 236l-217 -236h-94zM455 319 q0 -66 27.5 -91t101.5 -25h41q96 0 129 49q27 39 45 182l20 172q8 59 9 71.5t1 45.5q0 66 -26.5 90.5t-100.5 24.5h-40q-96 0 -127 -46.5t-50 -185.5l-20 -172q-8 -59 -9 -70.5t-1 -44.5z" />
<glyph unicode="&#xf5;" horiz-adv-x="1146" d="M154 285v73q6 35 8 52l26 223q29 233 127.5 327.5t321.5 94.5h141q193 0 274 -68.5t81 -232.5v-58q-7 -43 -9 -63l-26 -223q-29 -236 -128.5 -330t-322.5 -94h-141q-190 0 -271 68.5t-81 230.5zM444 1260q68 201 203 200q23 0 39 -3t39 -11l88 -25q20 -8 61 -8 q72 0 113 86h68q-72 -209 -209 -209q-29 0 -66 13l-84 26q-18 4 -37.5 8t-33.5 4q-72 0 -113 -81h-68zM455 319q0 -66 27.5 -91t101.5 -25h41q96 0 129 49q27 39 45 182l20 172q4 33 7 59.5t3 59.5q0 63 -26.5 88t-100.5 25h-40q-96 0 -127 -45t-50 -187l-20 -172 q-8 -59 -9 -70.5t-1 -44.5z" />
<glyph unicode="&#xf6;" horiz-adv-x="1146" d="M154 285v73q6 35 8 52l26 223q29 233 127.5 327.5t321.5 94.5h141q193 0 274 -68.5t81 -232.5v-58q-7 -43 -9 -63l-26 -223q-29 -236 -128.5 -330t-322.5 -94h-141q-190 0 -271 68.5t-81 230.5zM455 319q0 -66 27.5 -91t101.5 -25h41q96 0 129 49q27 39 45 182l20 172 q4 33 7 59.5t3 59.5q0 63 -26.5 88t-100.5 25h-40q-96 0 -127 -45t-50 -187l-20 -172q-8 -59 -9 -70.5t-1 -44.5zM469 1272l27 211h184l-27 -211h-184zM817 1272l27 211h184l-27 -211h-184z" />
<glyph unicode="&#xf7;" d="M111 410v245h991v-245h-991zM459 0v299h307v-299h-307zM459 770v299h307v-299h-307z" />
<glyph unicode="&#xf8;" horiz-adv-x="1146" d="M31 -221l196 282q-74 68 -73 226v73q6 37 8 54l26 225q29 238 128.5 333t322.5 95h141q72 0 138 -10l151 217h180l-194 -279q78 -72 78 -227v-61q-6 -45 -9 -68l-26 -225q-29 -238 -128.5 -333t-322.5 -95h-141q-96 0 -156 14l-155 -221h-164zM461 397l307 445 q-25 6 -63 6h-41q-96 0 -127 -46t-50 -188l-22 -174zM504 217q31 -12 80 -12h41q96 0 126.5 46t47.5 189l22 174l8 62z" />
<glyph unicode="&#xf9;" horiz-adv-x="1218" d="M199 227q0 55 4 85t6 48l84 693h293l-76 -613q-6 -55 -6 -92q0 -76 30.5 -97.5t120.5 -21.5q96 0 132 50.5t53 179.5l71 594h293l-129 -1053h-282l16 135l-18 -2q-51 -82 -127 -114.5t-189 -32.5q-154 0 -215 55t-61 186zM578 1548h200l133 -338h-96z" />
<glyph unicode="&#xfa;" horiz-adv-x="1218" d="M199 227q0 55 4 85t6 48l84 693h293l-76 -613q-6 -55 -6 -92q0 -76 30.5 -97.5t120.5 -21.5q96 0 132 50.5t53 179.5l71 594h293l-129 -1053h-282l16 135l-18 -2q-51 -82 -127 -114.5t-189 -32.5q-154 0 -215 55t-61 186zM657 1210l215 338h201l-319 -338h-97z" />
<glyph unicode="&#xfb;" horiz-adv-x="1218" d="M199 227q0 55 4 85t6 48l84 693h293l-76 -613q-6 -55 -6 -92q0 -76 30.5 -97.5t120.5 -21.5q96 0 132 50.5t53 179.5l71 594h293l-129 -1053h-282l16 135l-18 -2q-51 -82 -127 -114.5t-189 -32.5q-154 0 -215 55t-61 186zM504 1210l215 338h213l133 -338h-96l-154 236 l-217 -236h-94z" />
<glyph unicode="&#xfc;" horiz-adv-x="1218" d="M199 227q0 55 4 85t6 48l84 693h293l-76 -613q-6 -55 -6 -92q0 -76 30.5 -97.5t120.5 -21.5q96 0 132 50.5t53 179.5l71 594h293l-129 -1053h-282l16 135l-18 -2q-51 -82 -127 -114.5t-189 -32.5q-154 0 -215 55t-61 186zM524 1272l27 211h184l-26 -211h-185zM872 1272 l27 211h184l-26 -211h-185z" />
<glyph unicode="&#xfd;" horiz-adv-x="1101" d="M129 -393l25 200h53q57 0 106 33t66 76l33 107l-256 1021h303l137 -739l264 739h314l-531 -1187q-55 -141 -123 -197q-80 -63 -229 -63q-59 0 -162 10zM578 1214l215 336h200l-319 -336h-96z" />
<glyph unicode="&#xfe;" d="M115 -401l231 1886h283l-72 -563h16q49 80 128 113.5t184 33.5q145 0 214.5 -75.5t69.5 -231.5v-55q-6 -42 -8 -62l-28 -223q-27 -217 -118 -320.5t-263 -103.5q-102 0 -172 30.5t-93 96.5h-16l-63 -526h-293zM506 352q0 -68 26.5 -96.5t96.5 -28.5h39q88 0 125 54 q31 45 45 170l20 167q6 55 6 99q0 68 -26.5 96.5t-96.5 28.5h-39q-88 0 -121.5 -49.5t-48.5 -174.5l-20 -167q-6 -55 -6 -99z" />
<glyph unicode="&#xff;" horiz-adv-x="1101" d="M129 -393l25 200h53q57 0 106 33t66 76l33 107l-256 1021h303l137 -739l264 739h314l-531 -1187q-55 -141 -123 -197q-80 -63 -229 -63q-59 0 -162 10zM444 1276l27 209h184l-26 -209h-185zM793 1276l26 209h185l-27 -209h-184z" />
<glyph unicode="&#x152;" horiz-adv-x="2043" d="M182 434q0 59 11 152l38 317q39 315 190.5 459.5t438.5 144.5q156 0 291 -45q45 -14 106 -47l9 74h845l-34 -291h-539l-39 -319h514l-31 -244h-514l-43 -346h555l-34 -289h-863l9 74q-63 -31 -109 -45q-143 -47 -297 -47q-260 0 -382 107.5t-122 344.5zM551 453 q0 -96 45 -133t170 -37h74q160 0 211 62.5t75 266.5l33 265q12 92 12 155q0 102 -46 138t-173 36h-73q-152 0 -205 -62.5t-78 -266.5l-33 -265q-12 -96 -12 -159z" />
<glyph unicode="&#x153;" horiz-adv-x="1806" d="M154 289v71q6 37 8 54l26 225q29 238 128.5 333t322.5 95h127q104 0 162.5 -35t91.5 -135q53 94 122.5 132t172.5 38h133q190 0 270 -68.5t80 -232.5v-59q-6 -45 -8 -68l-18 -152h-652l-18 -153q-2 -12 -2 -24.5v-18.5q0 -61 31.5 -87t107.5 -26h51q74 0 110 23.5 t56 91.5h287q-33 -162 -134.5 -234.5t-293.5 -72.5h-168q-98 0 -143 41q-51 47 -64 172q-59 -119 -130 -166t-177 -47h-127q-190 0 -271 68.5t-81 234.5zM457 326q0 -68 28.5 -94.5t108.5 -26.5h43q100 0 134 46t52 189l23 174q8 55 9 67.5t1 45.5q0 70 -29.5 95.5 t-109.5 25.5h-45q-102 0 -134 -45t-51 -189l-22 -174q-8 -59 -8 -114zM1139 629h364l6 59q6 47 7 82q0 68 -31 94.5t-107 26.5h-51q-92 0 -129 -41t-51 -156z" />
<glyph unicode="&#x178;" horiz-adv-x="1390" d="M209 1481h403l203 -615l346 615h400l-615 -961l-63 -520h-359l62 520zM647 1710l25 209h184l-25 -209h-184zM995 1710l25 209h184l-24 -209h-185z" />
<glyph unicode="&#x2c6;" horiz-adv-x="1007" d="M373 1180l219 370h213l129 -370h-96l-152 258l-219 -258h-94z" />
<glyph unicode="&#x2dc;" horiz-adv-x="1007" d="M369 1227q70 227 204 227q25 0 41.5 -2t36.5 -12l90 -29q10 -6 26.5 -8t33.5 -2q72 0 114 100h68q-78 -240 -211 -239q-10 0 -28.5 4t-38.5 10l-84 29q-10 4 -34 10t-36 6q-72 0 -115 -94h-67z" />
<glyph unicode="&#x2000;" horiz-adv-x="992" />
<glyph unicode="&#x2001;" horiz-adv-x="1985" />
<glyph unicode="&#x2002;" horiz-adv-x="992" />
<glyph unicode="&#x2003;" horiz-adv-x="1985" />
<glyph unicode="&#x2004;" horiz-adv-x="661" />
<glyph unicode="&#x2005;" horiz-adv-x="496" />
<glyph unicode="&#x2006;" horiz-adv-x="330" />
<glyph unicode="&#x2007;" horiz-adv-x="330" />
<glyph unicode="&#x2008;" horiz-adv-x="248" />
<glyph unicode="&#x2009;" horiz-adv-x="397" />
<glyph unicode="&#x200a;" horiz-adv-x="110" />
<glyph unicode="&#x2010;" horiz-adv-x="677" d="M70 426v279h557v-279h-557z" />
<glyph unicode="&#x2011;" horiz-adv-x="677" d="M70 426v279h557v-279h-557z" />
<glyph unicode="&#x2012;" horiz-adv-x="677" d="M70 426v279h557v-279h-557z" />
<glyph unicode="&#x2013;" horiz-adv-x="1013" d="M0 426v217h1024v-217h-1024z" />
<glyph unicode="&#x2014;" horiz-adv-x="2027" d="M0 426v217h2048v-217h-2048z" />
<glyph unicode="&#x2018;" horiz-adv-x="675" d="M303 895l45 371q27 223 291 223l-10 -113h8q-119 0 -131 -114l-4 -54h104l-37 -313h-266z" />
<glyph unicode="&#x2019;" horiz-adv-x="675" d="M305 895l10 111h-8q115 0 129 116q2 8 3 20.5t1 35.5h-102l37 311h266l-45 -369q-27 -225 -291 -225z" />
<glyph unicode="&#x201a;" horiz-adv-x="675" d="M162 -262l12 110h-8q115 0 129 117l2 55h-102l38 312h267l-45 -371q-27 -223 -293 -223z" />
<glyph unicode="&#x201c;" horiz-adv-x="1138" d="M303 895l45 371q27 223 291 223l-10 -113h8q-119 0 -131 -114l-4 -54h104l-37 -313h-266zM801 895l45 371q27 223 289 223l-11 -113h9q-117 0 -129 -114q-4 -16 -5 -54h103l-37 -313h-264z" />
<glyph unicode="&#x201d;" horiz-adv-x="1138" d="M305 895l10 111h-8q115 0 129 116q2 8 3 20.5t1 35.5h-102l37 311h266l-45 -369q-27 -225 -291 -225zM801 895l10 111h-8q119 0 131 116l4 56h-104l36 311h267l-45 -369q-27 -225 -291 -225z" />
<glyph unicode="&#x201e;" horiz-adv-x="1138" d="M162 -262l12 110h-8q115 0 129 117l2 55h-102l38 312h267l-45 -371q-27 -223 -293 -223zM657 -262l13 110h-8q115 0 131 117l2 55h-105l39 312h266l-45 -371q-27 -223 -293 -223z" />
<glyph unicode="&#x2022;" horiz-adv-x="710" d="M115 614q0 109 74.5 183.5t183.5 74.5q104 0 179 -74.5t75 -183.5q0 -104 -75 -179t-179 -75q-109 0 -183.5 73t-74.5 181z" />
<glyph unicode="&#x2026;" horiz-adv-x="2027" d="M197 0v299h307v-299h-307zM881 0v299h307v-299h-307zM1561 0v299h307v-299h-307z" />
<glyph unicode="&#x202f;" horiz-adv-x="397" />
<glyph unicode="&#x2039;" horiz-adv-x="677" d="M242 438l30 254l375 283l-26 -225l-236 -181l190 -180l-28 -237z" />
<glyph unicode="&#x203a;" horiz-adv-x="677" d="M199 152l28 237l236 180l-191 181l27 225l309 -283l-30 -254z" />
<glyph unicode="&#x205f;" horiz-adv-x="496" />
<glyph unicode="&#x2122;" horiz-adv-x="2027" d="M156 1368v160h700v-160h-250v-668h-200v668h-250zM958 700v828h291l185 -492l188 492h291v-828h-180v668l-246 -668h-107l-241 668v-668h-181z" />
<glyph unicode="&#x25fc;" horiz-adv-x="1054" d="M0 0v1055h1055v-1055h-1055z" />
</font>
</defs>
</svg>
